<svg xmlns="http://www.w3.org/2000/svg" viewBox="0 0 465.08 106.22"><defs><style>.cls-1{fill:#fff;}.cls-2{fill:#006be1;}.cls-3{fill:#0074ee;}</style></defs><g id="Layer_2" data-name="Layer 2"><g id="Layer_1-2" data-name="Layer 1"><path class="cls-1" d="M52.41,0H0V53.12H26.21V26.55h26.2a26.56,26.56,0,0,1,0,53.11v26.56c29,0,52.42-23.77,52.42-53.1S81.36,0,52.41,0Z"/><rect class="cls-2" x="26.21" y="53.11" width="26.21" height="26.55"/><path class="cls-1" d="M148.84,66.37V33.25h15.37c6,0,9.91,1.72,12.82,4.71a16.91,16.91,0,0,1,4.4,11.82A17.05,17.05,0,0,1,176.73,62c-2.81,2.69-6.36,4.36-12.52,4.36ZM164,60.13c3.75,0,5.31-.86,7-2.38a10.87,10.87,0,0,0,3-7.91,10.79,10.79,0,0,0-2.75-7.67c-1.65-1.67-3.41-2.63-7.26-2.63h-8V60.13Z"/><path class="cls-1" d="M211.22,66.37V33.25h7.16V66.37Z"/><path class="cls-1" d="M255.93,47.65l15-14.4h9L266.29,46.18l16.08,20.19h-9.06L261.19,51l-5.26,5v10.4h-7.21V33.25h7.21Z"/><path class="cls-1" d="M336,66.37V47.15h-.25l-9.16,15.47h-2l-9.16-15.47h-.25V66.37h-7V33.25h6.86l10.71,18.16h.1l10.67-18.16h6.66V66.37Z"/><path class="cls-1" d="M384.81,33.25H391l15.18,33.12h-7.87l-3-7H380.15l-3,7h-7.56ZM382.6,53.64h10.22l-5-11.72h-.3Z"/><path class="cls-1" d="M465.08,33.19V66.31h-6.21L442.25,45.82h-.05V66.31H435V33.19h6.16l16.67,20.54h.05V33.19Z"/><path class="cls-3" d="M322.06,94.37a8,8,0,0,0-5.33-1.73c-1.75,0-3.3.57-3.3,2.14s2.18,1.68,4.4,1.84c2.63.18,6.76.45,6.76,4.59,0,3.6-3,5-6.46,5a11.44,11.44,0,0,1-8-3.12l1.53-1.78a9.29,9.29,0,0,0,6.53,2.69c2.18,0,3.91-.75,3.91-2.44,0-1.86-1.69-2.25-4.25-2.45-3.23-.23-6.91-.5-6.91-4.1s3.21-4.57,5.91-4.57a11.34,11.34,0,0,1,6.75,2.16Z"/><path class="cls-3" d="M347.31,90.89l-6,8v6.85h-2.51V98.89l-6-8H336l4.2,5.73,4.2-5.73Z"/><path class="cls-3" d="M367.31,94.37A8,8,0,0,0,362,92.64c-1.75,0-3.3.57-3.3,2.14s2.18,1.68,4.4,1.84c2.63.18,6.76.45,6.76,4.59,0,3.6-3,5-6.47,5a11.41,11.41,0,0,1-8-3.12l1.53-1.78a9.29,9.29,0,0,0,6.53,2.69c2.18,0,3.91-.75,3.91-2.44,0-1.86-1.69-2.25-4.25-2.45-3.23-.23-6.91-.5-6.91-4.1s3.21-4.57,5.9-4.57a11.38,11.38,0,0,1,6.76,2.16Z"/><path class="cls-3" d="M378.33,90.89h14v2.27h-5.75v12.58H384.1V93.16h-5.77Z"/><path class="cls-3" d="M410.46,99.12h-5.63v4.35h9.92v2.27H402.31V90.89h11.9v2.27h-9.38v3.69h5.63Z"/><path class="cls-3" d="M437.85,105.74V95.64h-.11L432.86,104h-.4l-4.87-8.33h-.11v10.1h-2.41V90.89h2.59l5.09,8.75h.05l5.09-8.75h2.47v14.85Z"/><path class="cls-3" d="M462.54,94.37a8,8,0,0,0-5.32-1.73c-1.75,0-3.3.57-3.3,2.14s2.18,1.68,4.4,1.84c2.63.18,6.76.45,6.76,4.59,0,3.6-3,5-6.47,5a11.41,11.41,0,0,1-8-3.12l1.52-1.78a9.32,9.32,0,0,0,6.54,2.69c2.18,0,3.9-.75,3.9-2.44,0-1.86-1.68-2.25-4.24-2.45-3.23-.23-6.91-.5-6.91-4.1s3.21-4.57,5.9-4.57a11.38,11.38,0,0,1,6.76,2.16Z"/></g></g></svg>